<svg version="1" xmlns="http://www.w3.org/2000/svg" width="1000" height="1000" viewBox="0 0 750.000000 750.000000"><path d="M0 375v375h750V0H0v375zm480.4-47.8c-1.1 1.3-4.1 4.6-6.7 7.5-5.3 5.8-5.6 7.4-2.6 10.4 1.8 1.8 2.8 2 6.7 1.4 8.2-1.1 26.3-6.5 34-10.1 4.1-1.9 7.9-3.4 8.5-3.4.5 0-.7 1.8-2.7 4-2 2.3-3.6 5-3.6 6.4 0 3.5 2.8 5.9 6 5.2 1.5-.2 8-1.2 14.5-2.1 6.6-.9 14.7-2.7 18.2-4l6.3-2.4 1.6 2.4c1.9 2.9 8.5 18 10.7 24.5 2.2 6.6 5.5 26 6.2 37 .4 5.2 1.3 17.8 2.1 28 1.1 14.7 1.2 23 .4 40.5-1.2 26.1-1.3 27.3-4.7 39.5-10.6 38.9-40.3 76.8-78.7 100.3-19.9 12.3-31.8 16.9-57.1 22-24.4 5.1-36.4 6-67.5 5.4-25.5-.5-29.7-.9-40-3.1-27.3-6.1-41.1-10.6-58.5-19.3-19-9.5-23.4-12.7-26.8-19.3-1.6-3-3.8-6.5-4.9-7.8l-2.1-2.2 2-2.3c4.7-5.1 6.6-10.8 7.1-21.3.6-13.2-1.2-19.8-7.2-26.3l-4.3-4.6 2.3-5c4.8-10.2 2.1-25.6-6.3-35.8-7.9-9.5-15.1-12.1-37-13.3l-11.8-.7v-54.6l4-4.1c7-7.3 22.4-17.4 39.9-26.2l7.9-4-4.2 4.9c-5.3 6-11.6 18.3-12.5 24.4-1.4 9.6 1.7 20.6 8.6 30.6 6.8 10 29.2 16.2 53.8 15 6.3-.4 14.1-1.3 17.3-2.2 18.9-5 31.2-18.6 32.4-36 .9-11.9-5-26.2-14.1-34.2-10.5-9.2-33.3-13.2-58.1-10.4-3.8.5-7.1.7-7.3.6-.2-.2 1.6-.9 4-1.7 13.1-4.5 18.1-5.9 26.3-7.2 20.1-3.4 29.2-4.6 33.5-4.6 2.6 0 5-.4 5.6-1 .5-.5 5.5-2.1 10.9-3.4 14.9-3.7 35.2-11.2 47.8-17.7 5.1-2.6 5.3-2.4 2.3 1.2-2.9 3.4-3.1 4.2-1.6 7 1.5 2.7 4.5 2.4 18.8-2 7-2.1 19.7-5.6 28.2-7.6 19.4-4.6 38.7-11.5 46.4-16.6 6.5-4.4 8.9-5 6-1.7zm-345 42c.6 2.6.2 2.9-6.7 6.1-8.3 3.8-13.3 8.4-17.7 16l-3 5.2v-5.2c0-11.5 4.3-20.9 10.9-23.5 3.1-1.3 14.3-2.6 15.2-1.9.4.4.9 1.8 1.3 3.3zm492.9-1.7c5.6 2.6 8.1 8.7 7.4 17.9-.7 8.1-4.2 20.1-9.4 31.8-8 18.4-9.3 34.4-3.9 49.5 2 5.6 2.6 9.2 2.6 15.4 0 11.3-1.4 15.3-6.8 19.7-4.2 3.5-5 3.7-11.1 3.6-6.7-.1-10.2-1.3-15.1-5.5-2.4-2-2.4-2.2-2.2-17.7.2-8.6.5-16.4.8-17.3.2-.8 2.1-2.1 4.1-2.8 2-.8 6-3.7 8.9-6.6 4.3-4.3 5.4-6.1 6.4-10.8 2-8.9-1.3-16.8-9.1-21.4-3.6-2.1-3.6-3-.3-12.1 2.6-7 3.6-8.3 4.9-6.2.9 1.4 4.8 1.3 6.3-.2 1.9-1.9 1.4-5.5-1.4-9.9-2.4-3.9-2.5-4.1-.7-5.5 2.5-1.9 4-1.7 6.3.6 2.7 2.7 5.6 2.5 7.6-.5 2.8-4.4-1.1-10.9-7.3-12.1-3.8-.7-3.9-1.4-.8-8.8 1.6-3.7 1.8-3.8 5.4-3.3 2.1.2 5.4 1.2 7.4 2.2zm-477 15.6c15.2 4.2 23.9 31.1 23.6 73.4-.1 6.6-.4 14.7-.8 17.9l-.6 5.9-13.5 2.3c-7.4 1.2-17.3 3.6-22 5.3-4.6 1.7-8.7 3.1-9.1 3.1-.3 0-.9-3.1-1.3-6.8-.6-6.4-2.7-15.5-7.6-33.2-10.2-37-4.3-61.9 16-68.1 3.7-1.1 11-1 15.3.2zm38.8 6.1c-1.2 1.8-3.8 6.1-5.8 9.5-3.9 6.6-5.3 7.7-5.3 4.1 0-2.2 2.9-6.4 8.9-13.1 4.1-4.6 5-4.8 2.2-.5zM301 395c9.2 3.4 14.7 7.7 18.1 14.2 2.4 4.6 2.6 18.1.4 23.3-1.8 4.5-11 14.2-15.6 16.5-13.5 7-46.4 6.4-60.8-1-13.3-6.7-17.1-27.2-7.7-41.1 7.9-11.7 20.8-16.1 44.6-15.4 10.9.3 13.6.8 21 3.5zm296.7 39.2c1.6 1.5 2.3 3.3 2.3 6.1 0 3.3-.7 4.6-4.2 8.1l-4.3 4.1-.3-4.8c-.4-5.9 1.5-15.7 3.1-15.7.6 0 2.1 1 3.4 2.2zM204.9 490c10.9 1.4 15.3 3.3 20 8.7 7 7.8 9 18.6 5.1 27.2l-2 4.3-4.8-.8c-2.6-.5-11.2-.8-19.2-.8-16.2.2-36.4 3.4-50 8-9 3.1-11.5 5.2-10.6 8.8.9 3.6 4.2 4.1 10.7 1.6 16-6.4 53-10.9 65.9-8.1 14.3 3.1 19 8.6 19 22.1 0 9.4-1.4 14.3-5 18.1l-2.8 3-8.9-1.7c-19.5-3.8-69.4-.7-76 4.8-1.8 1.5-1.6 5.3.3 6.9 1.3 1 2.8 1 8.2.1 21.9-4 50.8-5 65.1-2.2 7.5 1.4 14.5 6.1 17 11.4 4.4 8.9 1.4 21.3-6.1 25.2-3.2 1.7-27.3 3.6-61.6 5-16.6.7-17.4.8-18.9 3-2.1 3.2-.3 6.1 4.3 7 3 .5 42.7-1.4 65.4-3.2 5.4-.4 7-.2 9.8 1.6 4.1 2.5 6.2 7.3 6.2 13.9 0 14.7-11.6 24.1-36.2 29.2-9 1.8-12.5 2-27.8 1.6-24.3-.7-32.2-2.9-44.7-12.2-13-9.8-23.5-30.7-27.8-55-3.6-20.9-4.4-60.6-1.5-75 2.5-12 8.2-21.4 18.9-30.9 11.5-10.2 24.1-15.8 42.1-19 20.7-3.6 32.3-4.3 45.9-2.6z"/><path d="M475.5 352c-8.5 1.7-33 8-40.5 10.5-8.5 2.8-10.7 5.2-7.6 8.3 1.4 1.4 2.2 1.4 5.8.4 15.9-4.5 44.2-11.3 50.9-12.1 8.3-1.1 15.4-.7 20.1 1.1 7.7 2.9 11.1-3.5 3.8-7.2-3.3-1.7-5.7-2-16.2-1.9-6.8.1-14.1.5-16.3.9zM454.5 379.4c-13.7 3.9-21.1 8-26.4 14.6-5.5 6.8-7.4 12.5-7.9 22.8-.7 15 3 23.6 13.9 32.2 7 5.6 9.4 6.7 19.1 9 9.9 2.4 23.4 2.6 33.1.5 18.6-3.9 31.9-15.3 36.9-31.8 1.8-6.1 1.9-7.6.9-14.3-1.2-7.9-3-12.2-8-19.1-3.8-5.2-9.2-8.7-18.5-12.1-6.2-2.2-9.1-2.5-22.6-2.8-11.3-.3-16.9 0-20.5 1zm36.8 10.5c12.9 3.6 20.2 10 23.3 20.8 4.4 15.1-7.2 32.2-25.6 37.7-8.1 2.4-26.5 2.2-36-.5-14.1-3.8-19.7-9-22.4-20.8-3.4-14.8 2.2-27.4 15.1-33.9 3.3-1.7 12.5-4.2 20.3-5.6 4.6-.8 18.8.5 25.3 2.3z"/><path d="M467.6 412.6c-1.8 1.8-2 4.7-.6 7.5.7 1.3 2.1 1.9 4.5 1.9 3.6 0 5.5-2 5.5-5.8 0-4.3-6.3-6.8-9.4-3.6zM346 431c-1.1 1.1-2 2.8-2 3.8 0 3.5-3.1 13.8-6.7 22.2-2.7 6.4-3.6 9.9-3.7 14.5-.2 11.4 6.2 18.8 15.9 18.4 3.7-.2 5.9.4 8.5 2 9.8 6.1 22.5 6.6 33.1 1.4 3.5-1.7 8.9-3.6 12-4.2 9-1.9 13.3-8.2 13.3-19.5-.1-7.5-3.1-14.2-6.9-15.2-3.8-.9-5.8 1.2-5.1 5.5 2.8 16.5 1.8 18.9-8.4 19.8-5.1.4-7 1.1-8.8 2.9-5.5 5.7-18.7 5.3-24.4-.8-2.7-2.9-3-3-8.7-2.3-5.2.6-6.2.4-8-1.4-3.4-3.4-3.5-6.3-.6-13.2 4.4-10.6 7.5-20.8 8.2-27.2.5-5.1.3-6.2-1.2-7.3-2.6-1.9-4.2-1.7-6.5.6zM382.5 502.1c-5.8 1.9-6.3 1.9-13.7.3-9.6-2.1-12.3-1.7-29.6 4.7-15.1 5.6-25.6 8.4-34.7 9.4-3.3.3-7.5.8-9.4 1.1l-3.4.5.7 4.6c.8 6.1 12.9 33.1 18.8 41.8 9.2 13.9 21.5 21.7 41.3 26.5 10.5 2.6 35.1 2.8 45.8.4 19.4-4.3 34.4-16.4 45.5-36.4 4.4-7.8 12.2-31.4 12.2-36.6 0-5.6-1.7-7.1-8.7-7.9-7.4-.9-20.8-3.8-34.9-7.5-13-3.5-21.1-3.7-29.9-.9zm15.2 20.3c.1.1.5 3.8.9 8.3.6 7.5.5 8.2-1.4 9.2-2.9 1.6-17.1 1.4-17.7-.2-.3-.6-.6-4.8-.8-9.2l-.2-8 7-.6c6-.5 11.4-.3 12.2.5zm19.8-.4c.3.5.9 4.1 1.2 8l.6 7-3.4 1.4c-1.9.7-4.9 1.1-6.6.9l-3.3-.5V521h5.4c3 0 5.8.4 6.1 1zm28.3.9c.4 1.3-2.5 4-4.4 4.1-1.7 0-2.6-3.1-1.3-4.6 1.3-1.6 5.1-1.3 5.7.5zm-75 8.8l.3 9.3h-16.8l-.7-4.6c-.3-2.6-.6-6.6-.6-9 0-4.1.2-4.3 3.3-4.7 1.7-.2 5.7-.4 8.7-.3l5.5.1.3 9.2zm64-6c.4 3.5-2.2 5.7-6.1 5.1-1.7-.2-2.3-1.2-2.8-4-.3-2.1-.3-4 0-4.3.3-.3 2.3-.5 4.6-.3 3.7.3 4 .5 4.3 3.5zm-89.3 6.9v7.9l-3.6.3c-1.9.2-4.7-.2-6.2-.7-2.6-1-2.7-1.4-2.7-8v-7l5.3-.4c2.8-.1 5.7-.2 6.2-.2.6.1 1 3.6 1 8.1zm-35.7-3.4c.4 3.4-.4 3.5-3.5.6-3-2.8-2.9-4 .5-3.6 2.1.2 2.8.9 3 3zm15.7 2.8c0 4.9-.2 5.5-2.2 5.8-4.2.6-6.3-1.5-6.3-6.2 0-5.2.5-5.8 5-5.4l3.5.3v5.5zM269.6 415.6c-3.4 3.4-1 9.6 3.7 9.6 3.8 0 5.7-1.9 5.7-5.8 0-5-5.9-7.4-9.4-3.8z"/></svg>